<?xml version="1.0" encoding="utf-8"?>
<!-- Generator: Adobe Illustrator 27.5.0, SVG Export Plug-In . SVG Version: 6.00 Build 0)  -->
<svg version="1.1" id="Layer_1" xmlns="http://www.w3.org/2000/svg" xmlns:xlink="http://www.w3.org/1999/xlink" x="0px" y="0px"
	 viewBox="0 0 487.06 448.49" style="enable-background:new 0 0 487.06 448.49;" xml:space="preserve">
<style type="text/css">
	.st0{fill:#E9E9E9;}
</style>
<path class="st0" d="M185.42,124.13c0,0-8.94,1.88-21.48,7.4c-21.26,8.14-50.4-13.23-54.29-22.94c-7.77,23.31,7.77,40.8,18.1,45.72
	c-37.09,32.33-68.51,96.79-10.31,221.02c-3.73-38.08,2.87-66.41,14.61-86.85c5.01-8.72,18.16-27.91,28.43,36.27
	c6.48-6,10.46-64.6,9.67-72.55c-1.97-19.87,25.48-8.98,36.66-8.98c-29.14-19.43-50.53-43.32-42.76-70.52
	c2.04,31.62,25.5,48.4,47.34,57.21c16.49,6.65,34.3,9.29,52.07,8.52c30.98-1.34,101.57-0.39,83.24,37.81
	c102.97-11.66,36.91-93.25,0-110.78c2.67,5.36,1.67,8.67-0.2,10.69c-2.26,2.43-6.04,2.68-8.82,0.87c0,0-53.75-57.89-88.3-63.82
	c-11.38-1.96-22.38-5.74-32.95-10.39c-37.34-16.45-50.81-21.95-76.48-29.65C191.3,109.1,185.42,124.13,185.42,124.13z
	 M251.48,147.45L251.48,147.45l21.37,1.94l15.54,9.71l-24.4-2.87C258.61,155.6,253.9,152.3,251.48,147.45z M354.1,202.96
	c1.94-3.89,0.34-12.77,0.34-12.77l11.76,8.74C366.2,198.93,358.14,192.88,354.1,202.96z"/>
</svg>
